<svg data-name="Group 124" xmlns="http://www.w3.org/2000/svg" width="16.864" height="16.864" viewBox="0 0 16.864 16.864">
    <g data-name="Group 123">
        <path data-name="Path 167" d="M93.367 34.124h-3.373v-.562a.562.562 0 0 0-1.124 0v.562H85.5v-.562a.562.562 0 0 0-1.124 0v.562h-1.971A1.4 1.4 0 0 0 81 35.53v12.929a1.4 1.4 0 0 0 1.405 1.405h14.054a1.4 1.4 0 0 0 1.405-1.405V35.53a1.4 1.4 0 0 0-1.405-1.405h-1.968v-.562a.562.562 0 0 0-1.124 0zm3.373 4.5v9.837a.28.28 0 0 1-.281.281H82.405a.28.28 0 0 1-.281-.281v-9.84zm-11.8 6.746a.562.562 0 1 1-.562.562.562.562 0 0 1 .557-.565zm2.249 0a.562.562 0 1 1-.562.562.562.562 0 0 1 .557-.565zm2.249 0a.562.562 0 1 1-.562.562.562.562 0 0 1 .556-.565zm2.249 0a.562.562 0 1 1-.562.562.562.562 0 0 1 .556-.565zm-6.746-2.249a.562.562 0 1 1-.562.562.562.562 0 0 1 .556-.564zm2.249 0a.562.562 0 1 1-.562.562.562.562 0 0 1 .556-.564zm2.249 0a.562.562 0 1 1-.562.562.562.562 0 0 1 .555-.564zm2.249 0a.562.562 0 1 1-.562.562.562.562 0 0 1 .555-.564zm2.249 0a.562.562 0 1 1-.562.562.562.562 0 0 1 .554-.564zm-6.753-2.251a.562.562 0 1 1-.562.562.562.562 0 0 1 .562-.562zm2.249 0a.562.562 0 1 1-.562.562.562.562 0 0 1 .561-.562zm2.249 0a.562.562 0 1 1-.562.562.562.562 0 0 1 .561-.562zm2.249 0a.562.562 0 1 1-.562.562.562.562 0 0 1 .56-.562zm.562-5.621v.562a.562.562 0 0 1-1.124 0v-.562h-3.375v.562a.562.562 0 0 1-1.124 0v-.562H85.5v.562a.562.562 0 0 1-1.124 0v-.562h-1.971a.28.28 0 0 0-.281.281v1.97H96.74v-1.97a.28.28 0 0 0-.281-.281z" transform="translate(-81 -33)" style="fill:#004097;fill-rule:evenodd"/>
    </g>
</svg>
