<svg xmlns="http://www.w3.org/2000/svg" width="16.995" height="16.994" viewBox="0 0 16.995 16.994">
    <defs>
        <linearGradient id="a" x1=".5" x2=".5" y2="1" gradientUnits="objectBoundingBox">
            <stop offset="0" stop-color="#a067b5"/>
            <stop offset="1" stop-color="#3b92ea"/>
        </linearGradient>
    </defs>
    <g data-name="Group 160">
        <path data-name="Path 226" d="m19.983 15.383-1.517-1.517a2.429 2.429 0 0 0-3.406-.014 1.484 1.484 0 0 1-1.882.184 10.364 10.364 0 0 1-2.856-2.851 1.5 1.5 0 0 1 .2-1.889A2.429 2.429 0 0 0 10.5 5.9L8.978 4.382a2.424 2.424 0 0 0-3.422 0l-.437.437C2.843 7.1 3.014 11.881 7.75 16.614c2.856 2.856 5.73 4.052 8.061 4.052a5.173 5.173 0 0 0 3.737-1.422l.437-.437a2.423 2.423 0 0 0-.002-3.424zm-.975 2.449-.437.437c-1.793 1.793-5.752 1.466-9.847-2.63S4.3 7.583 6.094 5.789l.434-.437A1.042 1.042 0 0 1 8 5.353L9.516 6.87a1.042 1.042 0 0 1 .014 1.455 2.884 2.884 0 0 0-.366 3.614 11.733 11.733 0 0 0 3.251 3.246 2.883 2.883 0 0 0 3.608-.357 1.043 1.043 0 0 1 1.461.009L19 16.355a1.042 1.042 0 0 1 .006 1.477z" transform="translate(-3.698 -3.675)" style="fill:url(#a)"/>
    </g>
</svg>
